<svg xmlns="http://www.w3.org/2000/svg" version="1.1" xmlns:xlink="http://www.w3.org/1999/xlink" xmlns:svgjs="http://svgjs.dev/svgjs" width="1500" height="1500" viewBox="0 0 1500 1500"><rect width="1500" height="1500" fill="#ffffff"></rect><g transform="matrix(0.6666666666666666,0,0,0.6666666666666666,249.39393939393938,666.1704749628282)"><svg viewBox="0 0 396 66" data-background-color="#ffffff" preserveAspectRatio="xMidYMid meet" height="250" width="1500" xmlns="http://www.w3.org/2000/svg" xmlns:xlink="http://www.w3.org/1999/xlink"><g id="tight-bounds" transform="matrix(1,0,0,1,0.2400000000000091,0.19649191471998506)"><svg viewBox="0 0 395.52 65.60701617056004" height="65.60701617056004" width="395.52"><g><svg viewBox="0 0 395.52 65.60701617056004" height="65.60701617056004" width="395.52"><g><svg viewBox="0 0 395.52 65.60701617056004" height="65.60701617056004" width="395.52"><g id="textblocktransform"><svg viewBox="0 0 395.52 65.60701617056004" height="65.60701617056004" width="395.52" id="textblock"><g><svg viewBox="0 0 395.52 40.34683260226462" height="40.34683260226462" width="395.52"><g transform="matrix(1,0,0,1,0,0)"><svg width="395.52" viewBox="1 -38.9 490.11 50" height="40.34683260226462" data-palette-color="#052e26"><path d="M56.15-38.9L56.15-30.7 53.65-30.7 53.65-8.2 56.15-8.2 56.15 0 37.25 0 37.25-8.2 39.65-8.2 39.65-25.7 31.15 0 23.75 0 15-25.45 15-8.2 17.4-8.2 17.4 0 1 0 1-8.2 3.5-8.2 3.5-30.7 1-30.7 1-38.9 23.9-38.9 29.1-23.3 34.1-38.9 56.15-38.9ZM85-8.2L87.2-8.2 87.2 0 74 0 74-3.4Q72.9-1.8 70.92-0.55 68.95 0.7 66.1 0.7L66.1 0.7Q62.35 0.7 60.2-1.3 58.05-3.3 58.05-6.95L58.05-6.95Q58.05-16.4 74.1-16.65L74.1-16.65Q73.95-18.35 72.8-18.98 71.65-19.6 68.9-19.6L68.9-19.6Q66.65-19.6 64.07-19.13 61.5-18.65 59.35-17.85L59.35-17.85 59.35-27.05Q62-27.7 65.1-28.1 68.2-28.5 71.15-28.5L71.15-28.5Q78.6-28.5 81.8-25.8 85-23.1 85-17.45L85-17.45 85-8.2ZM74-11.4L74-11.7Q71.75-11.7 70.52-11.1 69.3-10.5 69.3-9.1L69.3-9.1Q69.3-8.25 69.82-7.73 70.35-7.2 71.3-7.2L71.3-7.2Q72.6-7.2 73.3-8.3 74-9.4 74-11.4L74-11.4ZM119.8-8.2L122-8.2 122 0 106.2 0 106.2-8.2 108.3-8.2 108.3-16.4Q108.3-18.05 107.6-18.82 106.9-19.6 105.5-19.6L105.5-19.6Q102.5-19.6 102.5-16.4L102.5-16.4 102.5-8.2 104.6-8.2 104.6 0 88.8 0 88.8-8.2 91-8.2 91-19.6 88.8-19.6 88.8-27.8 102.5-27.8 102.5-23.9Q106.1-28.5 111.5-28.5L111.5-28.5Q115.65-28.5 117.72-25.9 119.8-23.3 119.8-18.75L119.8-18.75 119.8-8.2ZM135.94 0.7Q130.64 0.7 127.97-1.88 125.29-4.45 125.29-10.55L125.29-10.55 125.29-19.6 123.09-19.6 123.09-27.8Q124.99-27.8 125.94-28.78 126.89-29.75 126.89-31.45L126.89-31.45 126.89-33.7 137.49-33.7 137.49-27.8 144.24-27.8 144.24-19.6 137.49-19.6 137.49-11.4Q137.49-9.75 138.22-8.97 138.94-8.2 140.39-8.2L140.39-8.2Q142.29-8.2 144.54-8.65L144.54-8.65 144.54-0.8Q143.14-0.25 140.77 0.23 138.39 0.7 135.94 0.7L135.94 0.7ZM177.14-8.2L179.34-8.2 179.34 0 163.54 0 163.54-8.2 165.64-8.2 165.64-16.4Q165.64-18.05 164.94-18.82 164.24-19.6 162.84-19.6L162.84-19.6Q159.84-19.6 159.84-16.4L159.84-16.4 159.84-8.2 161.94-8.2 161.94 0 146.14 0 146.14-8.2 148.34-8.2 148.34-30.7 146.14-30.7 146.14-38.9 159.84-38.9 159.84-23.9Q161.69-26.2 163.84-27.35 165.99-28.5 168.84-28.5L168.84-28.5Q172.99-28.5 175.07-25.9 177.14-23.3 177.14-18.75L177.14-18.75 177.14-8.2ZM207.89-8.2L210.09-8.2 210.09 0 196.89 0 196.89-3.4Q195.79-1.8 193.81-0.55 191.84 0.7 188.99 0.7L188.99 0.7Q185.24 0.7 183.09-1.3 180.94-3.3 180.94-6.95L180.94-6.95Q180.94-16.4 196.99-16.65L196.99-16.65Q196.84-18.35 195.69-18.98 194.54-19.6 191.79-19.6L191.79-19.6Q189.54-19.6 186.96-19.13 184.39-18.65 182.24-17.85L182.24-17.85 182.24-27.05Q184.89-27.7 187.99-28.1 191.09-28.5 194.04-28.5L194.04-28.5Q201.49-28.5 204.69-25.8 207.89-23.1 207.89-17.45L207.89-17.45 207.89-8.2ZM196.89-11.4L196.89-11.7Q194.64-11.7 193.41-11.1 192.19-10.5 192.19-9.1L192.19-9.1Q192.19-8.25 192.71-7.73 193.24-7.2 194.19-7.2L194.19-7.2Q195.49-7.2 196.19-8.3 196.89-9.4 196.89-11.4L196.89-11.4ZM242.69-8.2L244.89-8.2 244.89 0 229.09 0 229.09-8.2 231.19-8.2 231.19-16.4Q231.19-18.05 230.49-18.82 229.79-19.6 228.39-19.6L228.39-19.6Q225.39-19.6 225.39-16.4L225.39-16.4 225.39-8.2 227.49-8.2 227.49 0 211.69 0 211.69-8.2 213.89-8.2 213.89-19.6 211.69-19.6 211.69-27.8 225.39-27.8 225.39-23.9Q228.99-28.5 234.39-28.5L234.39-28.5Q238.54-28.5 240.61-25.9 242.69-23.3 242.69-18.75L242.69-18.75 242.69-8.2ZM295.33 0L261.58 0 261.58-8.2 264.08-8.2 264.08-30.7 261.58-30.7 261.58-38.9 295.33-38.9 295.33-23.8 284.13-23.8 284.13-30.7 278.08-30.7 278.08-22.8 282.48-22.8 282.48-17.1 278.08-17.1 278.08-8.2 284.13-8.2 284.13-16.1 295.33-16.1 295.33 0ZM319.38-14.3L325.83-8.2 327.43-8.2 327.43 0 311.83 0 311.83-8.2 313.23-8.2 311.28-11.15 310.78-11.15 308.83-8.2 310.23-8.2 310.23 0 296.83 0 296.83-8.2 298.93-8.2 304.98-13.6 298.63-19.6 297.03-19.6 297.03-27.8 312.63-27.8 312.63-19.6 311.23-19.6 313.18-16.7 313.68-16.7 315.63-19.6 314.23-19.6 314.23-27.8 327.23-27.8 327.23-19.6 325.13-19.6 319.38-14.3ZM328.73 11.1L328.73 2.9 330.93 2.9 330.93-19.6 328.73-19.6 328.73-27.8 342.43-27.8 342.43-24.4Q343.68-26 345.65-27.25 347.63-28.5 350.18-28.5L350.18-28.5Q355.28-28.5 357.85-24.7 360.43-20.9 360.43-13.9L360.43-13.9Q360.43-6.9 357.85-3.1 355.28 0.7 350.18 0.7L350.18 0.7Q347.63 0.7 345.65-0.55 343.68-1.8 342.43-3.4L342.43-3.4 342.43 2.9 345.88 2.9 345.88 11.1 328.73 11.1ZM345.33-8.2Q346.78-8.2 347.5-8.97 348.23-9.75 348.23-11.4L348.23-11.4 348.23-16.4Q348.23-18.05 347.5-18.82 346.78-19.6 345.33-19.6L345.33-19.6Q343.88-19.6 343.15-18.82 342.43-18.05 342.43-16.4L342.43-16.4 342.43-11.4Q342.43-9.75 343.15-8.97 343.88-8.2 345.33-8.2L345.33-8.2ZM383.17-28.5Q384.17-28.5 385.07-28.3 385.97-28.1 386.57-27.8L386.57-27.8 386.57-18.25Q384.52-19.1 382.17-19.1L382.17-19.1Q379.02-19.1 377.32-17.45 375.62-15.8 375.62-12.55L375.62-12.55 375.62-8.2 380.12-8.2 380.12 0 361.92 0 361.92-8.2 364.12-8.2 364.12-19.6 361.92-19.6 361.92-27.8 375.62-27.8 375.62-24.15Q377.02-26.25 378.82-27.38 380.62-28.5 383.17-28.5L383.17-28.5ZM403.07 0.7Q395.97 0.7 391.97-3.03 387.97-6.75 387.97-13.9L387.97-13.9Q387.97-21.05 391.97-24.78 395.97-28.5 403.07-28.5L403.07-28.5Q410.12-28.5 413.25-24.83 416.37-21.15 416.37-15.7L416.37-15.7 416.37-12.1 400.17-12.1 400.17-11.8Q400.17-9.95 401.27-9.08 402.37-8.2 404.92-8.2L404.92-8.2Q407.97-8.2 410.72-8.65 413.47-9.1 415.52-9.8L415.52-9.8 415.52-1.8Q413.77-0.85 410.4-0.08 407.02 0.7 403.07 0.7L403.07 0.7ZM400.17-17.6L405.97-17.6 405.97-18.2Q405.97-19.9 405.25-20.65 404.52-21.4 403.07-21.4L403.07-21.4Q401.62-21.4 400.9-20.63 400.17-19.85 400.17-18.2L400.17-18.2 400.17-17.6ZM439.22-28.5Q440.22-28.5 441.12-28.3 442.02-28.1 442.62-27.8L442.62-27.8 442.62-18.25Q440.57-19.1 438.22-19.1L438.22-19.1Q435.07-19.1 433.37-17.45 431.67-15.8 431.67-12.55L431.67-12.55 431.67-8.2 436.17-8.2 436.17 0 417.97 0 417.97-8.2 420.17-8.2 420.17-19.6 417.97-19.6 417.97-27.8 431.67-27.8 431.67-24.15Q433.07-26.25 434.87-27.38 436.67-28.5 439.22-28.5L439.22-28.5ZM456.57 0.7Q451.27 0.7 448.59-1.88 445.92-4.45 445.92-10.55L445.92-10.55 445.92-19.6 443.72-19.6 443.72-27.8Q445.62-27.8 446.57-28.78 447.52-29.75 447.52-31.45L447.52-31.45 447.52-33.7 458.12-33.7 458.12-27.8 464.87-27.8 464.87-19.6 458.12-19.6 458.12-11.4Q458.12-9.75 458.84-8.97 459.57-8.2 461.02-8.2L461.02-8.2Q462.92-8.2 465.17-8.65L465.17-8.65 465.17-0.8Q463.77-0.25 461.39 0.23 459.02 0.7 456.57 0.7L456.57 0.7ZM478.91 0.7Q472.61 0.7 466.76-1.3L466.76-1.3 466.76-8.7 474.86-8.7 474.86-8.2Q474.86-5.8 477.91-5.8L477.91-5.8Q480.61-5.8 480.61-7.65L480.61-7.65Q480.61-8.65 479.84-9.15 479.06-9.65 477.11-10L477.11-10 474.61-10.45Q466.76-11.85 466.76-19.35L466.76-19.35Q466.76-23.7 470.06-26.1 473.36-28.5 478.96-28.5L478.96-28.5Q485.21-28.5 489.51-26.4L489.51-26.4 489.51-19.45 481.91-19.45 481.91-19.95Q481.91-20.95 481.24-21.48 480.56-22 479.26-22L479.26-22Q476.76-22 476.76-20.4L476.76-20.4Q476.76-19.55 477.46-19.1 478.16-18.65 480.01-18.25L480.01-18.25 482.86-17.7Q487.31-16.85 489.21-14.55 491.11-12.25 491.11-8.65L491.11-8.65Q491.11-4.1 487.94-1.7 484.76 0.7 478.91 0.7L478.91 0.7Z" opacity="1" transform="matrix(1,0,0,1,0,0)" fill="#052e26" class="wordmark-text-0" data-fill-palette-color="primary" id="text-0"></path></svg></g></svg></g><g transform="matrix(1,0,0,1,0,49.87175145567684)"><svg viewBox="0 0 395.52 15.735264714883202" height="15.735264714883202" width="395.52"><g transform="matrix(1,0,0,1,0,0)"><svg width="395.52" viewBox="-0.8 -37.35 951.39 37.85" height="15.735264714883202" data-palette-color="#052e26"><path d="M11.95 0L11.95-17.15-0.8-36.75 5.9-36.75 14.75-22.25 23.6-36.75 30.25-36.75 17.55-17.05 17.55 0 11.95 0ZM58.78 0.5Q53.78 0.5 49.56-1.83 45.33-4.15 42.83-8.45 40.33-12.75 40.33-18.45L40.33-18.45Q40.33-24.2 42.83-28.48 45.33-32.75 49.56-35.05 53.78-37.35 58.78-37.35L58.78-37.35Q63.78-37.35 68.01-35.05 72.23-32.75 74.73-28.48 77.23-24.2 77.23-18.45L77.23-18.45Q77.23-12.75 74.73-8.45 72.23-4.15 68.01-1.83 63.78 0.5 58.78 0.5L58.78 0.5ZM58.78-4.55Q62.23-4.55 65.08-6.18 67.93-7.8 69.61-10.93 71.28-14.05 71.28-18.4L71.28-18.4Q71.28-22.8 69.61-25.93 67.93-29.05 65.11-30.65 62.28-32.25 58.78-32.25L58.78-32.25Q55.28-32.25 52.43-30.65 49.58-29.05 47.93-25.93 46.28-22.8 46.28-18.4L46.28-18.4Q46.28-14.05 47.98-10.93 49.68-7.8 52.56-6.18 55.43-4.55 58.78-4.55L58.78-4.55ZM106.16 0.5Q99.26 0.5 96.16-3.65 93.06-7.8 93.06-15.7L93.06-15.7 93.06-36.75 98.66-36.75 98.66-15.6Q98.66-9.75 100.41-7.23 102.16-4.7 106.16-4.7L106.16-4.7Q110.16-4.7 111.89-7.18 113.61-9.65 113.61-15.6L113.61-15.6 113.61-36.75 119.26-36.75 119.26-15.7Q119.26-7.85 115.99-3.68 112.71 0.5 106.16 0.5L106.16 0.5ZM161.44 0L154.99 0 147.59-13.9Q145.29-13.8 143.49-13.8L143.49-13.8 142.09-13.8 142.09 0 136.64 0 136.64-36.75 144.99-36.75Q151.34-36.75 155.44-34.13 159.54-31.5 159.54-25.6L159.54-25.6Q159.54-21.9 157.82-19.23 156.09-16.55 152.69-15.1L152.69-15.1 161.44 0ZM142.09-18.35L145.64-18.35Q150.54-18.35 152.37-20.48 154.19-22.6 154.19-25.55L154.19-25.55Q154.19-32.1 145.44-32.1L145.44-32.1 142.09-32.1 142.09-18.35ZM206.45 0L206.45-31.85 197.05-31.85 197.05-36.75 221.5-36.75 221.5-31.85 212-31.85 212 0 206.45 0ZM261.73 0L255.28 0 247.88-13.9Q245.58-13.8 243.78-13.8L243.78-13.8 242.38-13.8 242.38 0 236.93 0 236.93-36.75 245.28-36.75Q251.63-36.75 255.73-34.13 259.83-31.5 259.83-25.6L259.83-25.6Q259.83-21.9 258.11-19.23 256.38-16.55 252.98-15.1L252.98-15.1 261.73 0ZM242.38-18.35L245.93-18.35Q250.83-18.35 252.66-20.48 254.48-22.6 254.48-25.55L254.48-25.55Q254.48-32.1 245.73-32.1L245.73-32.1 242.38-32.1 242.38-18.35ZM290.11 0.5Q283.21 0.5 280.11-3.65 277.01-7.8 277.01-15.7L277.01-15.7 277.01-36.75 282.61-36.75 282.61-15.6Q282.61-9.75 284.36-7.23 286.11-4.7 290.11-4.7L290.11-4.7Q294.11-4.7 295.84-7.18 297.56-9.65 297.56-15.6L297.56-15.6 297.56-36.75 303.21-36.75 303.21-15.7Q303.21-7.85 299.94-3.68 296.66 0.5 290.11 0.5L290.11 0.5ZM329.04 0.5Q326.04 0.5 323.09-0.55 320.14-1.6 318.84-2.9L318.84-2.9 321.49-7.65Q322.54-6.7 324.77-5.68 326.99-4.65 329.04-4.65L329.04-4.65Q331.69-4.65 333.37-5.9 335.04-7.15 335.04-9.35L335.04-9.35Q335.04-11.05 334.14-12.3 333.24-13.55 331.94-14.38 330.64-15.2 328.24-16.4L328.24-16.4Q325.39-17.8 324.34-18.5L324.34-18.5Q319.49-21.75 319.49-27.5L319.49-27.5Q319.49-32.25 322.64-34.77 325.79-37.3 330.59-37.3L330.59-37.3Q335.74-37.3 339.34-34.35L339.34-34.35 336.69-29.8Q335.74-30.8 334.02-31.53 332.29-32.25 330.34-32.25L330.34-32.25Q327.84-32.25 326.42-31.13 324.99-30 324.99-27.8L324.99-27.8Q324.99-26.25 325.89-25.03 326.79-23.8 328.17-22.9 329.54-22 331.89-20.7L331.89-20.7Q334.14-19.45 335.34-18.73 336.54-18 337.59-17L337.59-17Q339.04-15.7 339.94-13.9 340.84-12.1 340.84-9.95L340.84-9.95Q340.84-6.6 339.32-4.25 337.79-1.9 335.12-0.7 332.44 0.5 329.04 0.5L329.04 0.5ZM362.37 0L362.37-31.85 352.97-31.85 352.97-36.75 377.42-36.75 377.42-31.85 367.92-31.85 367.92 0 362.37 0ZM413.7-36.95L423.75-13.1 432.55-36.75 438.5-36.75 424.2 0 423.5 0 413.5-23.8 403.55-0.05 402.85-0.05 388.55-36.75 394.5-36.75 403.3-13.1 413.4-36.95 413.7-36.95ZM468.43 0.5Q463.43 0.5 459.21-1.83 454.98-4.15 452.48-8.45 449.98-12.75 449.98-18.45L449.98-18.45Q449.98-24.2 452.48-28.48 454.98-32.75 459.21-35.05 463.43-37.35 468.43-37.35L468.43-37.35Q473.43-37.35 477.66-35.05 481.88-32.75 484.38-28.48 486.88-24.2 486.88-18.45L486.88-18.45Q486.88-12.75 484.38-8.45 481.88-4.15 477.66-1.83 473.43 0.5 468.43 0.5L468.43 0.5ZM468.43-4.55Q471.88-4.55 474.73-6.18 477.58-7.8 479.26-10.93 480.93-14.05 480.93-18.4L480.93-18.4Q480.93-22.8 479.26-25.93 477.58-29.05 474.76-30.65 471.93-32.25 468.43-32.25L468.43-32.25Q464.93-32.25 462.08-30.65 459.23-29.05 457.58-25.93 455.93-22.8 455.93-18.4L455.93-18.4Q455.93-14.05 457.63-10.93 459.33-7.8 462.21-6.18 465.08-4.55 468.43-4.55L468.43-4.55ZM527.96 0L521.51 0 514.11-13.9Q511.81-13.8 510.01-13.8L510.01-13.8 508.61-13.8 508.61 0 503.16 0 503.16-36.75 511.51-36.75Q517.86-36.75 521.96-34.13 526.06-31.5 526.06-25.6L526.06-25.6Q526.06-21.9 524.34-19.23 522.61-16.55 519.21-15.1L519.21-15.1 527.96 0ZM508.61-18.35L512.16-18.35Q517.06-18.35 518.89-20.48 520.71-22.6 520.71-25.55L520.71-25.55Q520.71-32.1 511.96-32.1L511.96-32.1 508.61-32.1 508.61-18.35ZM548.69 0L548.69-31.85 539.29-31.85 539.29-36.75 563.74-36.75 563.74-31.85 554.24-31.85 554.24 0 548.69 0ZM579.12 0L579.12-36.75 584.72-36.75 584.72-21.75 597.67-21.75 597.67-36.75 603.27-36.75 603.27 0 597.67 0 597.67-17.05 584.72-17.05 584.72 0 579.12 0ZM629.1 0L629.1-17.15 616.35-36.75 623.05-36.75 631.9-22.25 640.75-36.75 647.4-36.75 634.7-17.05 634.7 0 629.1 0ZM695.71-36.8L696.26-36.8 713.96 0 707.51 0 704.36-7.2 687.51-7.2 684.36 0 678.11 0 695.71-36.8ZM695.96-26.15L693.76-21.15 689.76-12.25 702.16-12.25 698.21-21.1 696.06-26.15 695.96-26.15ZM727.09 0L727.09-36.75 735.94-36.75Q747.04-36.75 751.47-31.5 755.89-26.25 755.89-19L755.89-19Q755.89-13.95 753.99-9.68 752.09-5.4 747.72-2.7 743.34 0 736.24 0L736.24 0 727.09 0ZM732.69-4.95L736.84-4.95Q743.74-4.95 746.87-8.88 749.99-12.8 749.99-18.75L749.99-18.75Q749.99-24.55 746.84-28.2 743.69-31.85 736.84-31.85L736.84-31.85 732.69-31.85 732.69-4.95ZM782.32 0L765.32-36.75 771.67-36.75 782.67-11.5 793.72-36.75 800.02-36.75 783.07 0 782.32 0ZM813.8 0L813.8-36.75 819.4-36.75 819.4 0 813.8 0ZM846.33 0.5Q843.33 0.5 840.38-0.55 837.43-1.6 836.13-2.9L836.13-2.9 838.78-7.65Q839.83-6.7 842.06-5.68 844.28-4.65 846.33-4.65L846.33-4.65Q848.98-4.65 850.66-5.9 852.33-7.15 852.33-9.35L852.33-9.35Q852.33-11.05 851.43-12.3 850.53-13.55 849.23-14.38 847.93-15.2 845.53-16.4L845.53-16.4Q842.68-17.8 841.63-18.5L841.63-18.5Q836.78-21.75 836.78-27.5L836.78-27.5Q836.78-32.25 839.93-34.77 843.08-37.3 847.88-37.3L847.88-37.3Q853.03-37.3 856.63-34.35L856.63-34.35 853.98-29.8Q853.03-30.8 851.31-31.53 849.58-32.25 847.63-32.25L847.63-32.25Q845.13-32.25 843.71-31.13 842.28-30 842.28-27.8L842.28-27.8Q842.28-26.25 843.18-25.03 844.08-23.8 845.46-22.9 846.83-22 849.18-20.7L849.18-20.7Q851.43-19.45 852.63-18.73 853.83-18 854.88-17L854.88-17Q856.33-15.7 857.23-13.9 858.13-12.1 858.13-9.95L858.13-9.95Q858.13-6.6 856.61-4.25 855.08-1.9 852.41-0.7 849.73 0.5 846.33 0.5L846.33 0.5ZM891.06 0.5Q886.06 0.5 881.84-1.83 877.61-4.15 875.11-8.45 872.61-12.75 872.61-18.45L872.61-18.45Q872.61-24.2 875.11-28.48 877.61-32.75 881.84-35.05 886.06-37.35 891.06-37.35L891.06-37.35Q896.06-37.35 900.29-35.05 904.51-32.75 907.01-28.48 909.51-24.2 909.51-18.45L909.51-18.45Q909.51-12.75 907.01-8.45 904.51-4.15 900.29-1.83 896.06 0.5 891.06 0.5L891.06 0.5ZM891.06-4.55Q894.51-4.55 897.36-6.18 900.21-7.8 901.89-10.93 903.56-14.05 903.56-18.4L903.56-18.4Q903.56-22.8 901.89-25.93 900.21-29.05 897.39-30.65 894.56-32.25 891.06-32.25L891.06-32.25Q887.56-32.25 884.71-30.65 881.86-29.05 880.21-25.93 878.56-22.8 878.56-18.4L878.56-18.4Q878.56-14.05 880.26-10.93 881.96-7.8 884.84-6.18 887.71-4.55 891.06-4.55L891.06-4.55ZM950.59 0L944.14 0 936.74-13.9Q934.44-13.8 932.64-13.8L932.64-13.8 931.24-13.8 931.24 0 925.79 0 925.79-36.75 934.14-36.75Q940.49-36.75 944.59-34.13 948.69-31.5 948.69-25.6L948.69-25.6Q948.69-21.9 946.97-19.23 945.24-16.55 941.84-15.1L941.84-15.1 950.59 0ZM931.24-18.35L934.79-18.35Q939.69-18.35 941.52-20.48 943.34-22.6 943.34-25.55L943.34-25.55Q943.34-32.1 934.59-32.1L934.59-32.1 931.24-32.1 931.24-18.35Z" opacity="1" transform="matrix(1,0,0,1,0,0)" fill="#052e26" class="slogan-text-1" data-fill-palette-color="secondary" id="text-1"></path></svg></g></svg></g></svg></g></svg></g></svg></g><defs></defs></svg><rect width="395.52" height="65.60701617056004" fill="none" stroke="none" visibility="hidden"></rect></g></svg></g></svg>