<svg xmlns="http://www.w3.org/2000/svg" version="1.1" xmlns:xlink="http://www.w3.org/1999/xlink" xmlns:svgjs="http://svgjs.dev/svgjs" width="128" height="128" viewBox="0 0 128 128"><g transform="matrix(0.8046875,0,0,0.8046875,12.333870967741937,42.312006005288026)"><svg viewBox="0 0 155 66" data-background-color="#ffffff" preserveAspectRatio="xMidYMid meet" height="54" width="128" xmlns="http://www.w3.org/2000/svg" xmlns:xlink="http://www.w3.org/1999/xlink"><g id="tight-bounds" transform="matrix(1,0,0,1,0.25,-0.058580858085804266)"><svg viewBox="0 0 154.5 66.11716171617162" height="66.11716171617162" width="154.5"><g><svg viewBox="0 0 154.5 66.11716171617162" height="66.11716171617162" width="154.5"><g><svg viewBox="0 0 154.5 66.11716171617162" height="66.11716171617162" width="154.5"><g id="textblocktransform"><svg viewBox="0 0 154.5 66.11716171617162" height="66.11716171617162" width="154.5" id="textblock"><g><svg viewBox="0 0 154.5 66.11716171617162" height="66.11716171617162" width="154.5"><g transform="matrix(1,0,0,1,0,0)"><svg width="154.5" viewBox="1 -38.9 90.9 38.9" height="66.11716171617162" data-palette-color="#052e26"><path d="M56.15-38.9L56.15-30.7 53.65-30.7 53.65-8.2 56.15-8.2 56.15 0 37.25 0 37.25-8.2 39.65-8.2 39.65-25.7 31.15 0 23.75 0 15-25.45 15-8.2 17.4-8.2 17.4 0 1 0 1-8.2 3.5-8.2 3.5-30.7 1-30.7 1-38.9 23.9-38.9 29.1-23.3 34.1-38.9 56.15-38.9ZM91.9 0L58.15 0 58.15-8.2 60.65-8.2 60.65-30.7 58.15-30.7 58.15-38.9 91.9-38.9 91.9-23.8 80.7-23.8 80.7-30.7 74.65-30.7 74.65-22.8 79.05-22.8 79.05-17.1 74.65-17.1 74.65-8.2 80.7-8.2 80.7-16.1 91.9-16.1 91.9 0Z" opacity="1" transform="matrix(1,0,0,1,0,0)" fill="#052e26" class="wordmark-text-0" data-fill-palette-color="primary" id="text-0"></path></svg></g></svg></g></svg></g></svg></g></svg></g><defs></defs></svg><rect width="154.5" height="66.11716171617162" fill="none" stroke="none" visibility="hidden"></rect></g></svg></g></svg>